<svg viewBox="0 0 18 18" fill="none" xmlns="http://www.w3.org/2000/svg">
<path d="M4.90989 8.66651C4.90988 8.58832 4.92531 8.51089 4.9553 8.43868C4.98528 8.36647 5.02924 8.3009 5.08463 8.24573C5.14002 8.19056 5.20577 8.14689 5.27808 8.11722C5.3504 8.08754 5.42787 8.07245 5.50603 8.07282L6.49436 8.07606C6.65195 8.07606 6.80308 8.13868 6.91451 8.25016C7.02594 8.36163 7.08854 8.51282 7.08854 8.67047V12.4091C7.19988 12.3761 7.34267 12.3409 7.49909 12.3042C7.6077 12.2787 7.70449 12.2171 7.77378 12.1297C7.84306 12.0422 7.88077 11.9338 7.8808 11.8222V7.18471C7.8808 7.10664 7.89616 7.02933 7.92602 6.9572C7.95588 6.88507 7.99965 6.81953 8.05483 6.76432C8.11001 6.70911 8.17552 6.66532 8.24762 6.63543C8.31971 6.60555 8.39699 6.59017 8.47503 6.59016H9.46532C9.6229 6.59019 9.77402 6.65282 9.88544 6.76429C9.99687 6.87575 10.0595 7.02693 10.0595 7.18457V11.4889C10.0595 11.4889 10.3073 11.3885 10.5489 11.2865C10.6386 11.2486 10.7152 11.185 10.769 11.1038C10.8229 11.0226 10.8516 10.9274 10.8517 10.8299V5.69843C10.8517 5.62037 10.8671 5.54308 10.8969 5.47096C10.9268 5.39885 10.9705 5.33332 11.0257 5.27813C11.0809 5.22293 11.1464 5.17914 11.2185 5.14927C11.2906 5.1194 11.3678 5.10402 11.4458 5.10402H12.4361C12.5937 5.10402 12.7449 5.16665 12.8563 5.27812C12.9677 5.38959 13.0304 5.54078 13.0304 5.69843V9.92393C13.8889 9.30149 14.7591 8.5528 15.4496 7.65258C15.5497 7.52191 15.616 7.36846 15.6425 7.20592C15.669 7.04339 15.6549 6.87682 15.6014 6.72109C15.1341 5.35897 14.2578 4.17447 13.0921 3.32953C11.9264 2.4846 10.5282 2.02048 9.08885 2.00063C5.20743 1.94847 1.99965 5.11809 2.00003 9.00145C1.99622 10.2303 2.31682 11.4383 2.92941 12.5034C3.01389 12.6491 3.13818 12.7677 3.28767 12.8451C3.43716 12.9226 3.60564 12.9558 3.77333 12.9408C3.96069 12.9243 4.19394 12.901 4.47123 12.8684C4.59192 12.8547 4.70334 12.797 4.78428 12.7064C4.86521 12.6158 4.91001 12.4986 4.91013 12.377V8.66651" fill="currentColor"/>
<path d="M4.88726 14.6616C5.93111 15.4212 7.16469 15.8772 8.45151 15.9791C9.73834 16.0809 11.0282 15.8247 12.1785 15.2387C13.3288 14.6527 14.2946 13.7598 14.9691 12.6588C15.6436 11.5577 16.0005 10.2915 16.0003 9.00018C16.0003 8.83898 15.9928 8.67959 15.9821 8.52106C13.4255 12.3353 8.705 14.1185 4.88721 14.6617" fill="#969696"/>
</svg>
