<svg viewBox="0 0 96 96" fill="none" xmlns="http://www.w3.org/2000/svg">
  <path fill-rule="evenodd" clip-rule="evenodd"
    d="M46.6354 9.13255C47.0775 9.04546 47.5339 9 48 9C48.4661 9 48.9225 9.04546 49.3646 9.13255L48.9781 11.0948C48.6628 11.0327 48.3358 11 48 11C47.6642 11 47.3372 11.0327 47.0219 11.0948L46.6354 9.13255ZM42.177 12.1087C42.6877 11.3448 43.3448 10.6877 44.1087 10.177L45.2202 11.8397C44.6744 12.2046 44.2046 12.6744 43.8397 13.2202L42.177 12.1087ZM51.8913 10.177C52.6552 10.6877 53.3123 11.3448 53.823 12.1087L52.1603 13.2202C51.7954 12.6744 51.3256 12.2046 50.7798 11.8397L51.8913 10.177ZM41 16C41 15.5339 41.0455 15.0775 41.1325 14.6354L43.0948 15.0219C43.0327 15.3372 43 15.6642 43 16V16.68H41V16ZM54.8675 14.6354C54.9545 15.0775 55 15.5339 55 16V16.68H53V16C53 15.6642 52.9673 15.3372 52.9052 15.0219L54.8675 14.6354ZM40.7103 18.0221C41.0589 17.9234 41.4119 17.8316 41.7694 17.7469L41.8389 18.04H43V19.5108L42.2306 19.6931C41.9009 19.7712 41.5757 19.8557 41.255 19.9465L40.7103 18.0221ZM54.2313 17.7471C54.5886 17.8321 54.9416 17.9242 55.2901 18.0232L54.7431 19.947C54.4227 19.8559 54.0979 19.7712 53.7687 19.6929L53 19.5101V18.04H54.1617L54.2313 17.7471ZM36.6203 19.5911C37.2697 19.27 37.9401 18.9766 38.6308 18.7122L39.3459 20.5799C38.7131 20.8222 38.0999 21.0907 37.5066 21.384L36.6203 19.5911ZM57.3681 18.7161C58.0579 18.9815 58.7275 19.2761 59.3763 19.5984L58.4866 21.3896C57.894 21.0952 57.2816 20.8258 56.6499 20.5827L57.3681 18.7161ZM32.8905 21.9052C33.4701 21.4625 34.0735 21.0461 34.7 20.6576L35.754 22.3573C35.1827 22.7116 34.6327 23.0912 34.1043 23.4947L32.8905 21.9052ZM61.2937 20.6681C61.919 21.0575 62.5212 21.4747 63.1 21.9181L61.8837 23.5057C61.3559 23.1013 60.8067 22.7209 60.2365 22.3658L61.2937 20.6681ZM29.6754 24.8921C30.1619 24.3449 30.6738 23.8209 31.2105 23.322L32.5722 24.7868C32.0825 25.2421 31.615 25.7206 31.1701 26.221L29.6754 24.8921ZM64.7769 23.3363C65.3126 23.8354 65.8237 24.3594 66.3096 24.9065L64.8142 26.2346C64.3697 25.734 63.9026 25.2552 63.4136 24.7996L64.7769 23.3363ZM27.0787 28.4173C27.4588 27.7906 27.8647 27.1833 28.296 26.5971L29.907 27.7823C29.5115 28.3199 29.1385 28.8778 28.7886 29.4546L27.0787 28.4173ZM67.6877 26.6105C68.1188 27.1963 68.5247 27.8029 68.905 28.4289L67.1957 29.4674C66.8455 28.891 66.4724 28.3334 66.0769 27.7959L67.6877 26.6105ZM25.1378 32.3261C25.4088 31.6459 25.705 30.981 26.0261 30.3331L27.8181 31.2213C27.5214 31.8198 27.2472 32.4353 26.9959 33.0662L25.1378 32.3261ZM69.9587 30.3425C70.2804 30.9897 70.5773 31.6538 70.8491 32.3331L68.9922 33.076C68.7401 32.4458 68.4651 31.8309 68.1677 31.2327L69.9587 30.3425ZM23.8411 36.4775C24.007 35.7658 24.197 35.066 24.411 34.3793L26.3205 34.9743C26.1212 35.6136 25.9439 36.2664 25.789 36.9314L23.8411 36.4775ZM71.5788 34.3841C71.7939 35.0703 71.985 35.7695 72.1519 36.4804L70.2048 36.9374C70.0489 36.2733 69.8706 35.6211 69.6703 34.9822L71.5788 34.3841ZM23.1499 40.7577C23.2179 40.0319 23.309 39.3148 23.4228 38.6074L25.3974 38.9251C25.2907 39.5883 25.2052 40.2618 25.1412 40.9443L23.1499 40.7577ZM72.5732 38.609C72.688 39.3162 72.7799 40.0331 72.8485 40.7584L70.8574 40.9469C70.7929 40.2651 70.7066 39.5922 70.5991 38.9294L72.5732 38.609ZM23 44C23 43.6378 23.0055 43.2772 23.0164 42.9184L25.0155 42.9793C25.0052 43.3177 25 43.658 25 44V45H23V44ZM72.9834 42.9186C72.9945 43.2774 73 43.6379 73 44V45H71V44C71 43.6583 70.9948 43.3183 70.9844 42.9802L72.9834 42.9186ZM23 49V47H25V49H23ZM73 47V49H71V47H73ZM23 53V51H25V53H23ZM73 51V53H71V51H73ZM23 57V55H25V57H23ZM73 55V57H71V55H73ZM23 61V59H25V61H23ZM73 59V61H71V59H73ZM23 63.5858L22.6262 63.9596L24.0404 65.3738L25 64.4142V63H23V63.5858ZM73 63.5858V63H71V64.4142L71.9596 65.3738L73.3738 63.9596L73 63.5858ZM19.9596 66.6262L21.2929 65.2929L22.7071 66.7071L21.3738 68.0404L19.9596 66.6262ZM74.7071 65.2929L76.0404 66.6262L74.6262 68.0404L73.2929 66.7071L74.7071 65.2929ZM17.2929 69.2929L18.6262 67.9596L20.0404 69.3738L18.7071 70.7071L17.2929 69.2929ZM77.3738 67.9596L78.7071 69.2929L77.2929 70.7071L75.9596 69.3738L77.3738 67.9596ZM15.9596 70.6262L17.3738 72.0404L17 72.4142V73H15V71.5858L15.9596 70.6262ZM80.0404 70.6262L81 71.5858V73H79V72.4142L78.6262 72.0404L80.0404 70.6262ZM15 75H17V77H15V75ZM21 77H19V75H21V77ZM29 77H27V75H29V77ZM33 77H31V75H33V77ZM25 77H23V75H25V77ZM37 77H35V75H37V77ZM41 77H39V75H41V77ZM45 77H43V75H45V77ZM53 77H51V75H53V77ZM57 77H55V75H57V77ZM49 77H47V75H49V77ZM61 77H59V75H61V77ZM65 77H63V75H65V77ZM69 77H67V75H69V77ZM77 77H75V75H77V77ZM79 77V75H81V77H79ZM73 77H71V75H73V77ZM39 79H41V80C41 80.3105 41.0202 80.6161 41.0593 80.9154L41 80.9232V81H40.4116L39.0761 81.1744C39.0259 80.7894 39 80.3974 39 80V79ZM45 81H43V79H45V81ZM53 81H51V79H53V81ZM55.597 81H55V80.9213L54.9402 80.9134C54.9796 80.6147 55 80.3098 55 80V79H57V80C57 80.3976 56.9738 80.7898 56.9231 81.1748L55.597 81ZM49 81H47V79H49V81ZM53.548 84.2541C53.9193 83.772 54.229 83.2413 54.4657 82.6741L56.3114 83.4443C56.0067 84.1746 55.6086 84.8563 55.1326 85.4744L53.548 84.2541ZM41.5311 82.6795C41.7667 83.2479 42.0754 83.7794 42.4458 84.2618L40.8595 85.4798C40.3838 84.8604 39.9869 84.1772 39.6835 83.4454L41.5311 82.6795ZM50.6741 86.4657C51.2413 86.229 51.772 85.9193 52.2541 85.548L53.4744 87.1326C52.8563 87.6086 52.1746 88.0067 51.4443 88.3114L50.6741 86.4657ZM43.7386 85.5555C44.2202 85.9258 44.7511 86.2345 45.32 86.4702L44.5545 88.3179C43.8214 88.0142 43.1383 87.6168 42.5196 87.1411L43.7386 85.5555ZM48 87C48.3098 87 48.6147 86.9796 48.9134 86.9402L49.1748 88.9231C48.7898 88.9738 48.3976 89 48 89C47.6024 89 47.2106 88.9743 46.8261 88.9243L47.084 86.941C47.3831 86.9799 47.6888 87 48 87Z"
    fill="#6C6C6C" />
</svg>