<svg viewBox="0 0 20 19" fill="none" xmlns="http://www.w3.org/2000/svg">
  <path
    d="M19.0007 10C19.5526 10 20.0052 9.55148 19.9501 9.00233C19.8105 7.61016 19.3799 6.25887 18.6819 5.03771C17.8182 3.52652 16.5749 2.26695 15.0751 1.38356C13.5753 0.500174 11.8709 0.0235604 10.1305 0.000851306C8.38999 -0.0218578 6.67374 0.410124 5.1514 1.25408C3.62907 2.09804 2.35339 3.32474 1.45051 4.81288C0.547629 6.30102 0.0488193 7.99906 0.00340496 9.73909C-0.0420094 11.4791 0.367545 13.2009 1.19157 14.7341C1.85744 15.973 2.77532 17.0542 3.88208 17.9102C4.31865 18.2478 4.93883 18.1016 5.23124 17.6336C5.52366 17.1655 5.37638 16.5535 4.94838 16.2051C4.13259 15.5409 3.45315 14.7203 2.95206 13.7879C2.29273 12.5611 1.96503 11.1835 2.00136 9.79124C2.0377 8.39898 2.43682 7.04031 3.15924 5.8496C3.88167 4.65888 4.90239 3.67736 6.12046 3.00207C7.33854 2.32679 8.71178 1.98115 10.1044 1.99932C11.497 2.01749 12.8608 2.39885 14.0608 3.10568C15.2608 3.81251 16.2556 4.82033 16.9467 6.02949C17.472 6.94845 17.808 7.95951 17.939 9.00326C18.0078 9.55087 18.4488 10 19.0007 10Z"
    fill="white" />
</svg>