<svg viewBox="0 0 13 13" fill="none" xmlns="http://www.w3.org/2000/svg">
    <path d="M12.395 6.75178C12.395 5.84687 11.8939 5.06224 11.1648 4.68996C11.253 4.44083 11.3011 4.17165 11.3011 3.88815C11.3011 2.62242 10.3218 1.59838 9.11445 1.59838C8.84527 1.59838 8.58754 1.64649 8.34929 1.74156C7.99534 0.975828 7.24621 0.451782 6.3814 0.451782C5.51658 0.451782 4.7686 0.976973 4.41293 1.74042C4.17525 1.64592 3.91695 1.59724 3.64777 1.59724C2.43931 1.59724 1.4611 2.62242 1.4611 3.88815C1.4611 4.17107 1.50863 4.44026 1.59683 4.68996C0.868324 5.06224 0.367188 5.84573 0.367188 6.75178C0.367188 7.60801 0.81506 8.35427 1.47942 8.74831C1.46797 8.84567 1.4611 8.94304 1.4611 9.04269C1.4611 10.3084 2.43931 11.3336 3.64777 11.3336C3.91695 11.3336 4.17468 11.2843 4.41236 11.1904C4.76745 11.9544 5.51543 12.4791 6.38082 12.4791C7.24679 12.4791 7.99477 11.9544 8.34929 11.1904C8.58697 11.2838 8.8447 11.3325 9.11445 11.3325C10.3229 11.3325 11.3011 10.3073 11.3011 9.04155C11.3011 8.94189 11.2943 8.84453 11.2822 8.74774C11.9454 8.35427 12.395 7.60801 12.395 6.75236V6.75178ZM8.60587 4.84231L6.12367 8.56504C6.04062 8.68932 5.90489 8.75633 5.76572 8.75633C5.68382 8.75633 5.60077 8.73342 5.52746 8.68417L5.4616 8.63033L4.07846 7.24719C3.91065 7.07938 3.91065 6.80734 4.07846 6.6401C4.24627 6.47286 4.51831 6.47172 4.68555 6.6401L5.69928 7.65211L7.88996 4.36466C8.02169 4.16706 8.28858 4.11495 8.4856 4.2461C8.68376 4.37783 8.7376 4.64472 8.60587 4.84174V4.84231Z"
          fill="currentColor"/>
</svg>
