<svg viewBox="0 0 18 18" fill="none" xmlns="http://www.w3.org/2000/svg">
  <path
    d="M7.5 2.25H3.75C2.925 2.25 2.25 2.925 2.25 3.75V14.25C2.25 15.075 2.925 15.75 3.75 15.75H7.5V16.5C7.5 16.9125 7.8375 17.25 8.25 17.25C8.6625 17.25 9 16.9125 9 16.5V1.5C9 1.0875 8.6625 0.75 8.25 0.75C7.8375 0.75 7.5 1.0875 7.5 1.5V2.25ZM7.5 13.5H3.75L7.5 9V13.5ZM14.25 2.25H10.5V3.75H13.5C13.9125 3.75 14.25 4.0875 14.25 4.5V13.5L10.5 9V15.75H14.25C15.075 15.75 15.75 15.075 15.75 14.25V3.75C15.75 2.925 15.075 2.25 14.25 2.25Z"
    fill="currentColor" />
</svg>