<svg viewBox="0 0 18 18" fill="none" xmlns="http://www.w3.org/2000/svg">
  <path
    d="M6.75 3.00001C3.435 3.00001 0.75 5.68501 0.75 9.00001C0.75 12.315 3.435 15 6.75 15C10.065 15 12.75 12.315 12.75 9.00001C12.75 5.68501 10.065 3.00001 6.75 3.00001ZM6.75 11.625C6.3375 11.625 6 11.2875 6 10.875V7.87501H5.0625C4.755 7.87501 4.5 7.62001 4.5 7.31251C4.5 7.00501 4.755 6.75001 5.0625 6.75001H8.4375C8.745 6.75001 9 7.00501 9 7.31251C9 7.62001 8.745 7.87501 8.4375 7.87501H7.5V10.875C7.5 11.2875 7.1625 11.625 6.75 11.625ZM15.1875 2.81251L16.5 3.40501C16.7925 3.54001 16.7925 3.95251 16.5 4.08751L15.1875 4.68001L14.595 6.00001C14.46 6.29251 14.0475 6.29251 13.9125 6.00001L13.32 4.68751L12 4.09501C11.7075 3.96001 11.7075 3.54751 12 3.41251L13.3125 2.82001L13.905 1.50001C14.04 1.20751 14.4525 1.20751 14.5875 1.50001L15.1875 2.81251ZM15.1875 13.3125L16.5 13.905C16.7925 14.04 16.7925 14.4525 16.5 14.5875L15.1875 15.18L14.595 16.5C14.46 16.7925 14.0475 16.7925 13.9125 16.5L13.32 15.1875L12 14.595C11.7075 14.46 11.7075 14.0475 12 13.9125L13.3125 13.32L13.905 12C14.04 11.7075 14.4525 11.7075 14.5875 12L15.1875 13.3125Z"
    fill="currentColor" />
</svg>