<svg viewBox="0 0 18 18" fill="none" xmlns="http://www.w3.org/2000/svg">
  <path fill-rule="evenodd" clip-rule="evenodd"
    d="M13.69 2C14.481 2 15.125 2.644 15.125 3.442L15.125 16L13.62 14.67L12.773 13.886L11.877 13.053L12.248 14.348L4.31 14.348C3.519 14.348 2.875 13.704 2.875 12.906L2.875 3.442C2.875 2.644 3.519 2 4.31 2L13.69 2V2ZM10.988 11.142C12.535 11.093 13.13 10.078 13.13 10.078C13.13 7.824 12.122 5.997 12.122 5.997C11.114 5.241 10.155 5.262 10.155 5.262L10.057 5.374C11.247 5.738 11.8 6.263 11.8 6.263C11.072 5.864 10.358 5.668 9.693 5.591C9.189 5.535 8.706 5.549 8.279 5.605L8.16 5.619C7.915 5.64 7.32 5.731 6.571 6.06C6.312 6.179 6.158 6.263 6.158 6.263C6.158 6.263 6.739 5.71 7.999 5.346L7.929 5.262C7.929 5.262 6.97 5.241 5.962 5.997C5.962 5.997 4.954 7.824 4.954 10.078C4.954 10.078 5.542 11.093 7.089 11.142C7.089 11.142 7.348 10.827 7.558 10.561C6.669 10.295 6.333 9.735 6.333 9.735L6.529 9.854L6.557 9.875L6.58442 9.89075L6.59258 9.89425L6.62 9.91C6.795 10.008 6.97 10.085 7.131 10.148C7.418 10.26 7.761 10.372 8.16 10.449C8.685 10.547 9.301 10.582 9.973 10.456C10.302 10.4 10.638 10.302 10.988 10.155C11.233 10.064 11.506 9.931 11.793 9.742C11.793 9.742 11.443 10.316 10.526 10.575C10.736 10.841 10.988 11.142 10.988 11.142ZM7.733 7.873C7.334 7.873 7.019 8.223 7.019 8.65C7.019 9.077 7.341 9.427 7.733 9.427C8.132 9.427 8.447 9.077 8.447 8.65C8.454 8.223 8.132 7.873 7.733 7.873ZM10.288 7.873C9.889 7.873 9.574 8.223 9.574 8.65C9.574 9.077 9.896 9.427 10.288 9.427C10.687 9.427 11.002 9.077 11.002 8.65C11.002 8.223 10.687 7.873 10.288 7.873Z"
    fill="currentColor" />
</svg>