<svg viewBox="0 0 18 18" fill="none" xmlns="http://www.w3.org/2000/svg">
  <path
    d="M14.4444 2H3.55556C2.7 2 2 2.7 2 3.55556V14.4444C2 15.3 2.7 16 3.55556 16H14.4444C15.3 16 16 15.3 16 14.4444V3.55556C16 2.7 15.3 2 14.4444 2ZM10.2133 4.74556C10.4389 4.52 10.8122 4.52 11.0378 4.74556L11.7222 5.43L12.4067 4.74556C12.6322 4.52 13.0056 4.52 13.2311 4.74556C13.4567 4.97111 13.4567 5.34444 13.2311 5.57L12.5467 6.25444L13.2311 6.93889C13.4567 7.16444 13.4567 7.53778 13.2311 7.76333C13.0056 7.98889 12.6322 7.98889 12.4067 7.76333L11.7222 7.08667L11.0378 7.77111C10.8122 7.99667 10.4389 7.99667 10.2133 7.77111C9.98778 7.54556 9.98778 7.17222 10.2133 6.94667L10.8978 6.26222L10.2133 5.57778C9.98 5.34444 9.98 4.97111 10.2133 4.74556ZM5.11111 5.67111H7.83333C8.15222 5.67111 8.41667 5.93556 8.41667 6.25444C8.41667 6.57333 8.15222 6.83778 7.83333 6.83778H5.11111C4.79222 6.83778 4.52778 6.57333 4.52778 6.25444C4.52778 5.93556 4.79222 5.67111 5.11111 5.67111ZM8.02778 12.1111H7.05556V13.0833C7.05556 13.4022 6.79111 13.6667 6.47222 13.6667C6.15333 13.6667 5.88889 13.4022 5.88889 13.0833V12.1111H4.91667C4.59778 12.1111 4.33333 11.8467 4.33333 11.5278C4.33333 11.2089 4.59778 10.9444 4.91667 10.9444H5.88889V9.97222C5.88889 9.65333 6.15333 9.38889 6.47222 9.38889C6.79111 9.38889 7.05556 9.65333 7.05556 9.97222V10.9444H8.02778C8.34667 10.9444 8.61111 11.2089 8.61111 11.5278C8.61111 11.8467 8.34667 12.1111 8.02778 12.1111ZM13.0833 13.0833H10.3611C10.0422 13.0833 9.77778 12.8189 9.77778 12.5C9.77778 12.1811 10.0422 11.9167 10.3611 11.9167H13.0833C13.4022 11.9167 13.6667 12.1811 13.6667 12.5C13.6667 12.8189 13.4022 13.0833 13.0833 13.0833ZM13.0833 11.1389H10.3611C10.0422 11.1389 9.77778 10.8744 9.77778 10.5556C9.77778 10.2367 10.0422 9.97222 10.3611 9.97222H13.0833C13.4022 9.97222 13.6667 10.2367 13.6667 10.5556C13.6667 10.8744 13.4022 11.1389 13.0833 11.1389Z"
    fill="currentColor" />
</svg>