<svg viewBox="0 0 18 18" fill="none" xmlns="http://www.w3.org/2000/svg">
  <path
    d="M9.15168 3C5.75493 3 3 5.75442 3 9.15168C3 11.8697 4.76246 14.1756 7.20724 14.9891C7.51431 15.046 7.61376 14.8553 7.61376 14.6933V13.5481C5.90257 13.9203 5.54628 12.8222 5.54628 12.8222C5.26638 12.1112 4.86293 11.922 4.86293 11.922C4.30467 11.5401 4.90548 11.5483 4.90548 11.5483C5.52322 11.5913 5.84823 12.1824 5.84823 12.1824C6.39675 13.1226 7.28721 12.8509 7.63837 12.6935C7.69322 12.2962 7.85265 12.0245 8.029 11.8712C6.66281 11.7149 5.2264 11.1874 5.2264 8.83077C5.2264 8.1587 5.46682 7.61017 5.86002 7.17956C5.79645 7.02423 5.58576 6.39829 5.92 5.55141C5.92 5.55141 6.43674 5.38634 7.61222 6.18196C8.10282 6.0456 8.62879 5.97741 9.15168 5.97485C9.67458 5.97741 10.2011 6.0456 10.6927 6.18196C11.8671 5.38634 12.3829 5.55141 12.3829 5.55141C12.7176 6.3988 12.5069 7.02474 12.4433 7.17956C12.8381 7.61017 13.0765 8.15921 13.0765 8.83077C13.0765 11.1935 11.6375 11.7139 10.2677 11.8661C10.4881 12.0568 10.6896 12.431 10.6896 13.0052V14.6933C10.6896 14.8569 10.788 15.0491 11.1002 14.9886C13.543 14.174 15.3034 11.8687 15.3034 9.15168C15.3034 5.75442 12.5489 3 9.15168 3Z"
    fill="currentColor" />
</svg>