<svg viewBox="0 0 18 18" fill="none" xmlns="http://www.w3.org/2000/svg">
  <path fill-rule="evenodd" clip-rule="evenodd"
    d="M12 3.75C12.5025 3.75 12.9525 3.9975 13.2225 4.38L16.1925 8.565C16.38 8.8275 16.38 9.1725 16.1925 9.435L13.2225 13.62C12.9525 14.0025 12.5025 14.25 12 14.25L3.75 14.2425C2.925 14.2425 2.25 13.575 2.25 12.75V5.25C2.25 4.425 2.925 3.7575 3.75 3.7575L12 3.75ZM10.4423 8.80042C10.4481 8.86794 10.4511 8.93252 10.4511 9.00004C10.4511 9.06756 10.4481 9.13214 10.4393 9.19966L10.9853 9.61358C11.1028 9.70458 11.1351 9.86604 11.0617 9.99521L10.5127 10.9434C10.4393 11.0726 10.2808 11.1254 10.1458 11.0667L9.51462 10.7996C9.406 10.8759 9.29151 10.9434 9.17115 10.9992L9.08602 11.6773C9.06841 11.8241 8.94218 11.9356 8.7954 11.9356H7.70043C7.55365 11.9356 7.42742 11.8241 7.4098 11.6773L7.32467 10.9992C7.20431 10.9434 7.08982 10.8759 6.98121 10.7996L6.35005 11.0667C6.21502 11.1254 6.0565 11.0726 5.98311 10.9434L5.43415 9.99521C5.36076 9.86604 5.39305 9.70165 5.51048 9.61358L6.0565 9.19966C6.05062 9.13214 6.04769 9.06756 6.04769 9.00004C6.04769 8.93252 6.05062 8.86794 6.0565 8.80336L5.51048 8.38944C5.39305 8.29844 5.36076 8.13698 5.43415 8.00781L5.98311 7.05668C6.0565 6.92752 6.21502 6.87468 6.35005 6.93339L6.98121 7.20053C7.08982 7.1242 7.20431 7.05668 7.32467 7.00091L7.4098 6.32278C7.42742 6.17601 7.55365 6.06445 7.70336 6.06445H8.79834C8.94511 6.06445 9.07134 6.17601 9.08896 6.32278L9.17409 7.00091C9.29445 7.05668 9.40894 7.1242 9.51755 7.20053L10.1487 6.93339C10.2837 6.87468 10.4423 6.92752 10.5157 7.05668L11.0646 8.00488C11.138 8.13404 11.1057 8.29844 10.9883 8.3865L10.4423 8.80042ZM7.23367 9.00004C7.23367 9.56661 7.69455 10.0275 8.26112 10.0275C8.82769 10.0275 9.28858 9.56661 9.28858 9.00004C9.28858 8.43347 8.82769 7.97259 8.26112 7.97259C7.69455 7.97259 7.23367 8.43347 7.23367 9.00004Z"
    fill="currentColor" />
</svg>