<svg viewBox="0 0 19 18" fill="none" xmlns="http://www.w3.org/2000/svg">
  <path fill-rule="evenodd" clip-rule="evenodd"
    d="M10.3969 8.97581C10.3969 11.1716 8.629 12.9515 6.44828 12.9515C4.26756 12.9515 2.49951 11.1716 2.49951 8.97581C2.49951 6.78007 4.26743 4.99994 6.44828 4.99994C8.62914 4.99994 10.3969 6.78007 10.3969 8.97581ZM14.729 8.97584C14.729 11.0427 13.845 12.7188 12.7546 12.7188C11.6642 12.7188 10.7802 11.0427 10.7802 8.97584C10.7802 6.90902 11.6641 5.23287 12.7545 5.23287C13.8449 5.23287 14.7289 6.90848 14.7289 8.97584H14.729ZM15.8042 12.3291C16.1878 12.3291 16.4986 10.8273 16.4986 8.97594C16.4986 7.12404 16.1876 5.62283 15.8042 5.62283C15.4208 5.62283 15.1099 7.12417 15.1099 8.97594C15.1099 10.8277 15.4206 12.3291 15.8042 12.3291Z"
    fill="currentColor" />
</svg>