<svg viewBox="0 0 18 18" fill="none" xmlns="http://www.w3.org/2000/svg">
  <path
    d="M7.5 15H10.5C10.5 15.825 9.825 16.5 9 16.5C8.175 16.5 7.5 15.825 7.5 15ZM10.5 6.75C10.5 8.7075 11.7525 10.3725 13.5 10.995V12.75H14.25C14.6625 12.75 15 13.0875 15 13.5C15 13.9125 14.6625 14.25 14.25 14.25H3.75C3.3375 14.25 3 13.9125 3 13.5C3 13.0875 3.3375 12.75 3.75 12.75H4.5V7.5C4.5 5.4075 5.9325 3.645 7.875 3.15V2.625C7.875 2.0025 8.3775 1.5 9 1.5C9.6225 1.5 10.125 2.0025 10.125 2.625V3.15C10.6575 3.285 11.145 3.5175 11.5875 3.825C10.905 4.605 10.5 5.6325 10.5 6.75Z"
    fill="currentColor" />
  <path
    d="M17.2025 6.81449C17.2025 6.74698 17.1996 6.68239 17.1937 6.61487L17.7397 6.20096C17.8572 6.11289 17.8895 5.9485 17.8161 5.81933L17.2671 4.87114C17.1937 4.74197 17.0352 4.68913 16.9002 4.74784L16.269 5.01498C16.1604 4.93865 16.0459 4.87114 15.9256 4.81536L15.8404 4.13724C15.8228 3.99046 15.6966 3.87891 15.5498 3.87891H14.4548C14.3051 3.87891 14.1789 3.99046 14.1613 4.13724L14.0761 4.81536C13.9558 4.87114 13.8413 4.93865 13.7327 5.01498L13.1015 4.74784C12.9665 4.68913 12.808 4.74197 12.7346 4.87114L12.1856 5.82227C12.1122 5.95143 12.1445 6.11289 12.2619 6.20389L12.808 6.61781C12.8021 6.68239 12.7992 6.74698 12.7992 6.81449C12.7992 6.88201 12.8021 6.9466 12.808 7.01411L12.2619 7.42803C12.1445 7.5161 12.1122 7.68049 12.1856 7.80966L12.7346 8.75785C12.808 8.88702 12.9665 8.93986 13.1015 8.88115L13.7327 8.61401C13.8413 8.69034 13.9558 8.75785 14.0761 8.81363L14.1613 9.49175C14.1789 9.63853 14.3051 9.75008 14.4519 9.75008H15.5469C15.6936 9.75008 15.8199 9.63853 15.8375 9.49175L15.9226 8.81363C16.043 8.75785 16.1575 8.69034 16.2661 8.61401L16.8972 8.88115C17.0323 8.93986 17.1908 8.88702 17.2642 8.75785L17.8131 7.80966C17.8865 7.68049 17.8542 7.51904 17.7368 7.42803L17.1908 7.01411C17.1996 6.9466 17.2025 6.88201 17.2025 6.81449ZM15.0126 7.84195C14.446 7.84195 13.9851 7.38106 13.9851 6.81449C13.9851 6.24793 14.446 5.78704 15.0126 5.78704C15.5792 5.78704 16.04 6.24793 16.04 6.81449C16.04 7.38106 15.5792 7.84195 15.0126 7.84195Z"
    fill="currentColor" />
</svg>