<svg viewBox="0 0 18 18" fill="none" xmlns="http://www.w3.org/2000/svg">
    <path d="M2.25 0C1.65326 0 1.08097 0.237053 0.65901 0.65901C0.237053 1.08097 0 1.65326 0 2.25L0 15.75C0 16.3467 0.237053 16.919 0.65901 17.341C1.08097 17.7629 1.65326 18 2.25 18H15.75C16.3467 18 16.919 17.7629 17.341 17.341C17.7629 16.919 18 16.3467 18 15.75V2.25C18 1.65326 17.7629 1.08097 17.341 0.65901C16.919 0.237053 16.3467 0 15.75 0L2.25 0ZM3.9375 2.8125C10.1509 2.8125 15.1875 7.84913 15.1875 14.0625C15.1875 14.3609 15.069 14.647 14.858 14.858C14.647 15.069 14.3609 15.1875 14.0625 15.1875C13.7641 15.1875 13.478 15.069 13.267 14.858C13.056 14.647 12.9375 14.3609 12.9375 14.0625C12.9375 11.6756 11.9893 9.38637 10.3015 7.69854C8.61363 6.01071 6.32445 5.0625 3.9375 5.0625C3.63913 5.0625 3.35298 4.94397 3.142 4.733C2.93103 4.52202 2.8125 4.23587 2.8125 3.9375C2.8125 3.63913 2.93103 3.35298 3.142 3.142C3.35298 2.93103 3.63913 2.8125 3.9375 2.8125ZM3.9375 7.3125C5.72771 7.3125 7.4446 8.02366 8.71047 9.28953C9.97634 10.5554 10.6875 12.2723 10.6875 14.0625C10.6875 14.3609 10.569 14.647 10.358 14.858C10.147 15.069 9.86087 15.1875 9.5625 15.1875C9.26413 15.1875 8.97798 15.069 8.767 14.858C8.55603 14.647 8.4375 14.3609 8.4375 14.0625C8.4375 12.869 7.96339 11.7244 7.11948 10.8805C6.27557 10.0366 5.13097 9.5625 3.9375 9.5625C3.63913 9.5625 3.35298 9.44397 3.142 9.233C2.93103 9.02202 2.8125 8.73587 2.8125 8.4375C2.8125 8.13913 2.93103 7.85298 3.142 7.642C3.35298 7.43103 3.63913 7.3125 3.9375 7.3125ZM4.5 15.1875C4.05245 15.1875 3.62322 15.0097 3.30676 14.6932C2.99029 14.3768 2.8125 13.9476 2.8125 13.5C2.8125 13.0524 2.99029 12.6232 3.30676 12.3068C3.62322 11.9903 4.05245 11.8125 4.5 11.8125C4.94755 11.8125 5.37678 11.9903 5.69324 12.3068C6.00971 12.6232 6.1875 13.0524 6.1875 13.5C6.1875 13.9476 6.00971 14.3768 5.69324 14.6932C5.37678 15.0097 4.94755 15.1875 4.5 15.1875Z"
          fill="currentColor"/>
</svg>
