<svg viewBox="0 0 18 18" fill="none" xmlns="http://www.w3.org/2000/svg">
  <path
    d="M4.75 16.1008H13C13.4142 16.1008 13.75 16.4366 13.75 16.8508C13.75 17.265 13.4142 17.6008 13 17.6008H4.75C4.33579 17.6008 4 17.265 4 16.8508C4 16.4366 4.33579 16.1008 4.75 16.1008Z"
    fill="currentColor" />
  <path
    d="M6.18983 15.75H11.6866C11.8046 15.75 11.8927 15.4231 11.8187 15.3312C11.2813 14.664 11.531 13.4599 11.7875 12.8101C12.7456 10.019 12.75 7.48092 12.75 7.45552C12.75 2.78692 9.79207 2.28294 8.51977 2.28294C7.71449 2.28294 6.9372 1.92962 6.41397 1.62222C6.33808 1.57764 6.24341 1.6431 6.26229 1.72907C6.32336 2.00715 6.39548 2.28242 6.47844 2.55412C6.48896 2.58805 6.49283 2.62391 6.4898 2.65949C6.48678 2.69507 6.47692 2.72961 6.46085 2.761C6.42616 2.82892 5.5809 4.43265 3.89672 5.97623C3.82197 6.0343 3.65731 6.19711 3.81806 6.53829C4.01691 6.96035 4.43271 7.47159 4.81088 7.58877C4.87635 7.61188 4.94579 7.6195 5.01434 7.61108C5.08288 7.60266 5.14885 7.57841 5.20761 7.54003C5.87796 7.11331 6.73739 6.47088 6.74619 6.46466C6.78693 6.43413 6.8355 6.41757 6.88537 6.4172C6.93525 6.41683 6.98403 6.43267 7.02517 6.46259C7.26703 6.63836 7.61393 6.68191 7.9789 6.58288C8.33802 6.4854 8.65951 6.26089 8.83931 5.98297C9.15103 5.5018 9.25217 5.02789 9.10999 4.71523C9.09601 4.68459 9.08784 4.65133 9.08597 4.61734C9.0841 4.58335 9.08855 4.5493 9.09907 4.51714C9.1096 4.48498 9.12599 4.45533 9.14731 4.42989C9.16864 4.40445 9.19447 4.38372 9.22335 4.36887C9.25222 4.35403 9.28357 4.34537 9.31559 4.34338C9.34762 4.34139 9.3797 4.34612 9.41001 4.35729C9.44032 4.36846 9.46826 4.38585 9.49223 4.40848C9.5162 4.43111 9.53574 4.45853 9.54973 4.48917C9.86584 5.18448 9.43979 5.97001 9.24191 6.27592C9.09451 6.50451 8.88317 6.69601 8.63814 6.84492C8.60723 6.86371 8.59697 6.89928 8.59697 6.93546C8.59697 8.10157 8.22857 8.76629 6.80433 10.1694C5.72943 11.2287 5.06494 12.6613 5.0713 13.9067C5.07434 14.4828 5.21996 14.9959 5.4968 15.4164C5.64684 15.6443 5.91697 15.75 6.18983 15.75Z"
    fill="currentColor" />
  <path
    d="M8.69238 1.26562C9.91957 1.26562 10.7564 1.47652 11.4907 1.97152C12.6838 2.77692 14.1064 4.38155 14.1064 7.45313C14.1064 8.2013 14.1064 9.22584 13.5986 11.2579"
    stroke="currentColor" stroke-width="1.5" stroke-linecap="round" />
</svg>