<svg viewBox="0 0 18 18" fill="none" xmlns="http://www.w3.org/2000/svg">
  <path
    d="M16.2662 4.42063C15.7229 4.66181 15.139 4.82424 14.5263 4.89746C15.152 4.52276 15.6325 3.92904 15.8583 3.22149C15.2732 3.5685 14.6247 3.82075 13.9344 3.95673C13.3825 3.36792 12.5943 3 11.7231 3C9.76723 3 8.32998 4.82486 8.77174 6.71924C6.25472 6.59311 4.02256 5.3872 2.5281 3.55435C1.73441 4.91591 2.11649 6.69709 3.46514 7.59906C2.96924 7.58306 2.50164 7.44709 2.09372 7.22006C2.0605 8.62346 3.06645 9.93642 4.52338 10.2287C4.09701 10.3443 3.63002 10.3714 3.15505 10.2804C3.5402 11.4838 4.65874 12.3593 5.98523 12.3839C4.71165 13.3825 3.10705 13.8285 1.5 13.639C2.84065 14.4986 4.43355 15 6.14397 15C11.7687 15 14.9465 10.2496 14.7545 5.98892C15.3464 5.56132 15.8601 5.02789 16.2662 4.42063Z"
    fill="currentColor" />
</svg>