<svg width="24" height="24" viewBox="0 0 24 24" fill="none" xmlns="http://www.w3.org/2000/svg">
<path d="M12 24C18.6274 24 24 18.6274 24 12C24 5.37258 18.6274 0 12 0C5.37258 0 0 5.37258 0 12C0 18.6274 5.37258 24 12 24Z" fill="url(#paint0_linear)"/>
<path d="M12 16V21L18 13L12 16Z" fill="white"/>
<path d="M12 16V21L6 13L12 16Z" fill="white"/>
<path d="M6 12L12 15V9L6 12Z" fill="white"/>
<path d="M18 12L12 15V9L18 12Z" fill="white"/>
<path d="M12 3L6 12L12 9V3Z" fill="white"/>
<path d="M12 3L18 12L12 9V3Z" fill="white"/>
<defs>
<linearGradient id="paint0_linear" x1="0" y1="0" x2="25.2668" y2="1.41732" gradientUnits="userSpaceOnUse">
<stop stop-color="#00A3FF"/>
<stop offset="1" stop-color="#9E00FF"/>
</linearGradient>
</defs>
</svg>
