<svg width="331" height="157" viewBox="0 0 331 157" fill="none" xmlns="http://www.w3.org/2000/svg">
<rect x="1.00194" y="0.614118" width="329.443" height="155.383" stroke="#4D4D4D" stroke-width="0.747036"/>
<path fill-rule="evenodd" clip-rule="evenodd" d="M137.336 57.0153H194.111C194.523 57.0153 194.858 57.3498 194.858 57.7624V88.2566L180.88 78.3732L180.602 78.1767L180.38 78.4351L173.977 85.9054L173.977 85.9055L171.601 88.6786L151.745 74.6391L151.467 74.4426L151.246 74.701L136.589 91.801V57.7624C136.589 57.3498 136.923 57.0153 137.336 57.0153ZM136.589 92.5909V99.5964C136.589 100.009 136.923 100.343 137.336 100.343H186.805L151.592 75.4455L136.766 92.7425L136.589 92.5909ZM188.508 101.09H194.111C194.936 101.09 195.605 100.422 195.605 99.5964V57.7624C195.605 56.9372 194.936 56.2683 194.111 56.2683H137.336C136.511 56.2683 135.842 56.9372 135.842 57.7624V99.5964C135.842 100.422 136.511 101.09 137.336 101.09H187.861L188.292 101.395L188.508 101.09ZM188.098 100.343L172.214 89.1117L174.544 86.3916L174.544 86.3915L180.726 79.1796L194.858 89.1715V99.5964C194.858 100.009 194.523 100.343 194.111 100.343H188.098ZM174.688 70.462C177.576 70.462 179.917 68.1208 179.917 65.2327C179.917 62.3447 177.576 60.0035 174.688 60.0035C171.8 60.0035 169.458 62.3447 169.458 65.2327C169.458 68.1208 171.8 70.462 174.688 70.462ZM174.688 71.209C177.988 71.209 180.664 68.5333 180.664 65.2327C180.664 61.9321 177.988 59.2565 174.688 59.2565C171.387 59.2565 168.711 61.9321 168.711 65.2327C168.711 68.5333 171.387 71.209 174.688 71.209Z" fill="#4D4D4D"/>
</svg>
