<svg width="18" height="12" viewBox="0 0 18 12" fill="none" xmlns="http://www.w3.org/2000/svg">
<path d="M1.90927 11.2744C1.82389 11.5216 1.5911 11.6875 1.32954 11.6875C0.900991 11.6875 0.60456 11.2592 0.755516 10.8581L2.91777 5.11314C3.03893 4.79125 3.34686 4.57812 3.6908 4.57812C4.03437 4.57812 4.34206 4.79081 4.46347 5.11221L6.63398 10.8581C6.7854 11.259 6.4892 11.6875 6.06071 11.6875C5.79937 11.6875 5.56679 11.5218 5.48148 11.2747L5.0625 10.0615H2.32812L1.90927 11.2744ZM2.67969 9.0459H4.70605L3.69043 6.11621L2.67969 9.0459Z" fill="#898989"/>
<path d="M9.49585 11.0265C9.35924 11.4221 8.98678 11.6875 8.56827 11.6875C7.8826 11.6875 7.40831 11.0022 7.64984 10.3605L11.1878 0.96025C11.3345 0.570535 11.7073 0.3125 12.1238 0.3125H12.5685C12.9845 0.3125 13.357 0.569998 13.504 0.959124L17.0554 10.3605C17.2977 11.0019 16.8237 11.6875 16.1382 11.6875C15.72 11.6875 15.3479 11.4223 15.2114 11.0271L14.541 9.08594H10.166L9.49585 11.0265ZM10.7285 7.46094H13.9707L12.3457 2.77344L10.7285 7.46094Z" fill="#898989"/>
</svg>
