<svg width="140" height="90" viewBox="0 0 140 90" fill="none" xmlns="http://www.w3.org/2000/svg">
<path d="M10.2568 83.6296C15.996 83.6296 20.5135 78.9775 20.5135 73.1985C20.5135 67.4195 15.996 62.7673 10.2568 62.7673C4.51752 62.7673 0 67.4195 0 73.1985C0 78.9775 4.51752 83.6296 10.2568 83.6296ZM10.2568 82.156C5.34147 82.156 1.50584 78.1685 1.50584 73.1985C1.50584 68.2285 5.34147 64.241 10.2568 64.241C15.1721 64.241 19.0077 68.2285 19.0077 73.1985C19.0077 78.1685 15.1721 82.156 10.2568 82.156Z" fill="white"/>
<path d="M32.7139 68.5464C29.9579 68.5464 27.7702 69.9911 26.6053 72.2161V68.8642H25.1847V89.0908H26.6053V79.96C27.7702 82.1849 29.9579 83.6296 32.7139 83.6296C36.7768 83.6296 40.0726 80.3645 40.0726 76.088C40.0726 71.8115 36.7768 68.5464 32.7139 68.5464ZM32.6286 82.2427C29.2476 82.2427 26.6053 79.5265 26.6053 76.088C26.6053 72.6495 29.2476 69.9333 32.6286 69.9333C36.0097 69.9333 38.652 72.6495 38.652 76.088C38.652 79.5265 36.0097 82.2427 32.6286 82.2427Z" fill="white"/>
<path d="M51.0263 68.5464C46.6793 68.5464 43.6676 71.8404 43.6676 76.088C43.6676 80.4512 46.7645 83.6296 51.14 83.6296C53.9528 83.6296 56.1689 82.3294 57.3338 80.3645L56.0837 79.6132C55.2597 81.1447 53.4982 82.2427 51.1684 82.2427C47.9294 82.2427 45.486 80.1044 45.145 76.8393H58.0157C58.0157 76.6081 58.0441 76.377 58.0441 76.1458C58.0441 72.1872 55.345 68.5464 51.0263 68.5464ZM51.0263 69.9333C53.8107 69.9333 56.2542 71.8982 56.5667 75.4234H45.145C45.4292 72.2161 47.7874 69.9333 51.0263 69.9333Z" fill="white"/>
<path d="M69.0074 68.5464C66.8197 68.5464 65.0013 69.471 63.9217 71.6093V68.8642H62.5011V83.3118H63.9217V75.6835C63.9217 71.7826 66.1094 69.9333 68.8938 69.9333C71.5645 69.9333 73.0704 71.667 73.0704 74.3254V83.3118H74.5194V74.3254C74.5194 70.8291 72.3885 68.5464 69.0074 68.5464Z" fill="white"/>
<path d="M87.4314 63.0852H79.959V83.3118H87.4314C92.9149 83.3118 96.8073 78.7753 96.8073 73.1985C96.8073 67.6217 92.9149 63.0852 87.4314 63.0852ZM87.4314 81.867H81.4648V64.5299H87.4314C92.1193 64.5299 95.3299 68.4019 95.3299 73.1985C95.3299 77.9951 92.1193 81.867 87.4314 81.867Z" fill="white"/>
<path d="M107.847 68.5464C103.5 68.5464 100.488 71.8404 100.488 76.088C100.488 80.4512 103.585 83.6296 107.961 83.6296C110.774 83.6296 112.99 82.3294 114.155 80.3645L112.905 79.6132C112.081 81.1447 110.319 82.2427 107.989 82.2427C104.75 82.2427 102.307 80.1044 101.966 76.8393H114.837C114.837 76.6081 114.865 76.377 114.865 76.1458C114.865 72.1872 112.166 68.5464 107.847 68.5464ZM107.847 69.9333C110.632 69.9333 113.075 71.8982 113.388 75.4234H101.966C102.25 72.2161 104.608 69.9333 107.847 69.9333Z" fill="white"/>
<path d="M130.63 64.5299V63.0852H119.606V83.3118H121.112V74.0653H130.289V72.6206H121.112V64.5299H130.63Z" fill="white"/>
<path d="M135.874 65.3679C136.499 65.3679 137.011 64.8478 137.011 64.2121C137.011 63.6053 136.499 63.0852 135.874 63.0852C135.249 63.0852 134.738 63.6053 134.738 64.2121C134.738 64.8478 135.249 65.3679 135.874 65.3679ZM135.164 83.3118H136.585V68.8642H135.164V83.3118Z" fill="white"/>
<path d="M18.9565 0.938242H0.505371V47.8504H18.9565C31.6746 47.8504 41.3615 37.6637 41.3615 24.3943C41.3615 11.1249 31.6746 0.938242 18.9565 0.938242ZM18.9565 37.5297H11.0489V11.2589H18.9565C26.2052 11.2589 31.2133 16.3522 31.2133 24.3943C31.2133 32.4364 26.2052 37.5297 18.9565 37.5297Z" fill="url(#paint0_linear)"/>
<path d="M77.5765 47.8504H89.1084L73.425 0.938242H59.982L44.2985 47.8504H55.8305L58.1369 40.4785H75.2701L77.5765 47.8504ZM61.2999 30.4259L66.7035 13.2024L72.107 30.4259H61.2999Z" fill="url(#paint1_linear)"/>
<path d="M116.014 48.7886C129.259 48.7886 140 38.1999 140 24.3943C140 10.5887 129.259 0 116.014 0C102.769 0 92.0275 10.5887 92.0275 24.3943C92.0275 38.1999 102.769 48.7886 116.014 48.7886ZM116.014 38.3339C108.502 38.3339 102.571 32.7715 102.571 24.3943C102.571 16.0171 108.502 10.4547 116.014 10.4547C123.526 10.4547 129.457 16.0171 129.457 24.3943C129.457 32.7715 123.526 38.3339 116.014 38.3339Z" fill="url(#paint2_linear)"/>
<defs>
<linearGradient id="paint0_linear" x1="0.505371" y1="0" x2="140.319" y2="45.9915" gradientUnits="userSpaceOnUse">
<stop stop-color="#9E00FF"/>
<stop offset="1" stop-color="#F10939"/>
</linearGradient>
<linearGradient id="paint1_linear" x1="0.505371" y1="0" x2="140.319" y2="45.9915" gradientUnits="userSpaceOnUse">
<stop stop-color="#9E00FF"/>
<stop offset="1" stop-color="#F10939"/>
</linearGradient>
<linearGradient id="paint2_linear" x1="0.505371" y1="0" x2="140.319" y2="45.9915" gradientUnits="userSpaceOnUse">
<stop stop-color="#9E00FF"/>
<stop offset="1" stop-color="#F10939"/>
</linearGradient>
</defs>
</svg>
