<svg viewBox="0 0 284 58" fill="none" xmlns="http://www.w3.org/2000/svg">
  <path
    d="M284 1L282.298 6.517L278.371 2.28472L284 1ZM1.34222 0.635471C1.9326 1.18972 2.52623 1.74052 3.12309 2.28787L2.44722 3.02489C1.84748 2.47491 1.25099 1.92145 0.657775 1.36453L1.34222 0.635471ZM6.74235 5.52967C7.96117 6.59593 9.19264 7.64807 10.4365 8.68584L9.79589 9.45369C8.54602 8.41092 7.30861 7.35371 6.08392 6.28231L6.74235 5.52967ZM14.2036 11.7546C15.4709 12.7625 16.7503 13.7558 18.0416 14.7342L17.4376 15.5313C16.1401 14.5481 14.8545 13.55 13.5811 12.5373L14.2036 11.7546ZM21.9484 17.623C23.2614 18.5702 24.586 19.5024 25.9219 20.4192L25.356 21.2438C24.0137 20.3225 22.6827 19.3858 21.3633 18.434L21.9484 17.623ZM29.96 23.1214C31.3159 24.0058 32.6829 24.8746 34.0606 25.7278L33.5341 26.578C32.1497 25.7207 30.7762 24.8476 29.4137 23.9589L29.96 23.1214ZM38.2214 28.2369C39.6172 29.0564 41.0235 29.8599 42.4401 30.6472L41.9543 31.5213C40.5308 30.7301 39.1177 29.9227 37.7151 29.0992L38.2214 28.2369ZM46.7145 32.9574C48.1473 33.71 49.59 34.4462 51.0423 35.1659L50.5983 36.0619C49.1389 35.3388 47.6892 34.5989 46.2495 33.8426L46.7145 32.9574ZM55.4211 37.2715C56.8876 37.9554 58.3635 38.6226 59.8485 39.2728L59.4474 40.1888C57.9552 39.5355 56.4721 38.865 54.9985 38.1777L55.4211 37.2715ZM64.3221 41.1687C65.8191 41.7823 67.3249 42.3788 68.8393 42.958L68.4821 43.892C66.9603 43.31 65.4471 42.7106 63.9428 42.094L64.3221 41.1687ZM73.3977 44.6396C74.9219 45.1815 76.4543 45.7059 77.9947 46.2126L77.6822 47.1625C76.1343 46.6533 74.5944 46.1263 73.0627 45.5819L73.3977 44.6396ZM82.6277 47.676C84.1756 48.1448 85.7312 48.5958 87.2942 49.029L87.0272 49.9927C85.4565 49.5574 83.8933 49.1041 82.3379 48.6331L82.6277 47.676ZM91.9915 50.2708C93.5595 50.6655 95.1347 51.0423 96.7168 51.4008L96.4958 52.3761C94.906 52.0158 93.3231 51.6372 91.7474 51.2405L91.9915 50.2708ZM101.468 52.4185C103.052 52.7384 104.644 53.0401 106.241 53.3234L106.067 54.308C104.461 54.0233 102.862 53.7202 101.27 53.3987L101.468 52.4185ZM111.035 54.1152C112.633 54.3598 114.236 54.586 115.846 54.7937L115.718 55.7854C114.101 55.5768 112.489 55.3494 110.884 55.1037L111.035 54.1152ZM120.672 55.3587C122.279 55.5277 123.891 55.6783 125.509 55.8102L125.428 56.8069C123.802 56.6743 122.182 56.523 120.567 56.3532L120.672 55.3587ZM130.356 56.1484C131.969 56.2421 133.587 56.3172 135.209 56.3736L135.175 57.373C133.544 57.3163 131.919 57.2408 130.298 57.1468L130.356 56.1484ZM140.067 56.4859C140.877 56.4953 141.688 56.5 142.5 56.5V57.5C141.684 57.5 140.869 57.4953 140.055 57.4859L140.067 56.4859ZM142.5 56.5C143.312 56.5 144.123 56.4953 144.933 56.4859L144.945 57.4859C144.131 57.4953 143.316 57.5 142.5 57.5V56.5ZM149.791 56.3736C151.413 56.3172 153.031 56.2421 154.644 56.1484L154.702 57.1468C153.081 57.2408 151.456 57.3163 149.825 57.373L149.791 56.3736ZM159.491 55.8102C161.109 55.6783 162.721 55.5277 164.328 55.3587L164.433 56.3532C162.818 56.523 161.198 56.6743 159.572 56.8069L159.491 55.8102ZM169.154 54.7937C170.764 54.586 172.367 54.3598 173.965 54.1152L174.116 55.1037C172.511 55.3494 170.899 55.5768 169.282 55.7854L169.154 54.7937ZM178.759 53.3234C180.356 53.0401 181.948 52.7384 183.532 52.4185L183.73 53.3987C182.138 53.7202 180.539 54.0234 178.933 54.308L178.759 53.3234ZM188.283 51.4008C189.865 51.0423 191.44 50.6655 193.009 50.2708L193.253 51.2405C191.677 51.6372 190.094 52.0158 188.504 52.3761L188.283 51.4008ZM197.706 49.029C199.269 48.5958 200.824 48.1448 202.372 47.676L202.662 48.6331C201.107 49.1041 199.543 49.5574 197.973 49.9927L197.706 49.029ZM207.005 46.2126C208.546 45.7059 210.078 45.1815 211.602 44.6397L211.937 45.5819C210.406 46.1264 208.866 46.6533 207.318 47.1625L207.005 46.2126ZM216.161 42.958C217.675 42.3788 219.181 41.7823 220.678 41.1687L221.057 42.094C219.553 42.7106 218.04 43.31 216.518 43.892L216.161 42.958ZM225.151 39.2728C226.636 38.6226 228.112 37.9554 229.579 37.2715L230.002 38.1778C228.528 38.865 227.045 39.5355 225.553 40.1889L225.151 39.2728ZM233.958 35.1659C235.41 34.4462 236.853 33.71 238.285 32.9574L238.75 33.8427C237.311 34.5989 235.861 35.3388 234.402 36.0619L233.958 35.1659ZM242.56 30.6472C243.976 29.8599 245.383 29.0564 246.779 28.2369L247.285 29.0993C245.882 29.9227 244.469 30.7302 243.046 31.5213L242.56 30.6472ZM250.939 25.7278C252.317 24.8747 253.684 24.0058 255.04 23.1214L255.586 23.959C254.224 24.8476 252.85 25.7207 251.466 26.578L250.939 25.7278ZM259.078 20.4193C260.414 19.5024 261.739 18.5702 263.052 17.623L263.637 18.434C262.317 19.3858 260.986 20.3225 259.644 21.2438L259.078 20.4193ZM266.958 14.7342C268.25 13.7558 269.529 12.7625 270.796 11.7546L271.419 12.5373C270.145 13.55 268.86 14.5481 267.562 15.5313L266.958 14.7342ZM274.563 8.68586C275.807 7.64809 277.039 6.59594 278.258 5.52969L278.916 6.28233C277.691 7.35372 276.454 8.41093 275.204 9.45371L274.563 8.68586ZM284 1L280.596 12.034L272.742 3.56943L284 1ZM1.68445 0.270939C2.2734 0.823849 2.8656 1.37333 3.46103 1.91936L2.10929 3.3934C1.50811 2.8421 0.910188 2.28731 0.315551 1.72906L1.68445 0.270939ZM7.07156 5.15335C8.28745 6.21704 9.51595 7.26664 10.7568 8.30191L9.47558 9.83762C8.22271 8.79235 6.98233 7.7326 5.7547 6.65863L7.07156 5.15335ZM14.5148 11.3633C15.7791 12.3687 17.0554 13.3596 18.3435 14.3357L17.1357 15.9298C15.835 14.9443 14.5464 13.9438 13.2699 12.9286L14.5148 11.3633ZM22.2409 17.2175C23.5507 18.1624 24.8721 19.0924 26.2048 20.007L25.0731 21.656C23.7275 20.7325 22.3933 19.7936 21.0708 18.8395L22.2409 17.2175ZM30.2332 22.7026C31.5858 23.5848 32.9494 24.4516 34.3238 25.3027L33.2709 27.0031C31.8832 26.1437 30.5063 25.2686 29.1405 24.3777L30.2332 22.7026ZM38.4745 27.8057C39.867 28.6232 41.2699 29.4248 42.683 30.2102L41.7114 31.9583C40.2845 31.1653 38.8679 30.3559 37.4619 29.5304L38.4745 27.8057ZM46.9471 32.5147C48.3763 33.2655 49.8155 34 51.2643 34.7179L50.3764 36.5099C48.9134 35.785 47.4602 35.0434 46.017 34.2853L46.9471 32.5147ZM55.6325 36.8183C57.0954 37.5006 58.5677 38.1662 60.0491 38.8148L59.2469 40.6469C57.751 39.9919 56.2644 39.3198 54.7871 38.6309L55.6325 36.8183ZM64.5117 40.7061C66.0051 41.3182 67.5072 41.9132 69.0179 42.491L68.3035 44.359C66.778 43.7756 65.2612 43.1747 63.7532 42.5566L64.5117 40.7061ZM73.5652 44.1685C75.0856 44.709 76.6143 45.2321 78.1509 45.7377L77.526 47.6375C75.9743 47.127 74.4306 46.5988 72.8953 46.053L73.5652 44.1685ZM82.7727 47.1975C84.3168 47.6651 85.8685 48.1151 87.4277 48.5471L86.8936 50.4745C85.3192 50.0382 83.7522 49.5838 82.193 49.1116L82.7727 47.1975ZM92.1135 49.7859C93.6777 50.1797 95.2491 50.5555 96.8273 50.9132L96.3853 52.8637C94.7916 52.5025 93.2049 52.123 91.6253 51.7254L92.1135 49.7859ZM101.567 51.9284C103.147 52.2475 104.735 52.5485 106.329 52.8311L105.979 54.8004C104.37 54.515 102.767 54.2111 101.171 53.8888L101.567 51.9284ZM111.111 53.621C112.704 53.8649 114.304 54.0906 115.91 54.2978L115.654 56.2813C114.033 56.0721 112.417 55.8443 110.808 55.5979L111.111 53.621ZM120.724 54.8614C122.327 55.03 123.936 55.1803 125.55 55.3119L125.387 57.3052C123.758 57.1724 122.133 57.0207 120.515 56.8504L120.724 54.8614ZM130.385 55.6493C131.994 55.7427 133.608 55.8176 135.227 55.8739L135.157 57.8727C133.523 57.8159 131.894 57.7402 130.269 57.6459L130.385 55.6493ZM140.073 55.986C140.881 55.9953 141.69 56 142.5 56V58C141.682 58 140.865 57.9953 140.05 57.9858L140.073 55.986ZM142.5 56C143.31 56 144.119 55.9953 144.927 55.986L144.95 57.9858C144.135 57.9953 143.318 58 142.5 58V56ZM149.773 55.8739C151.392 55.8176 153.006 55.7427 154.615 55.6493L154.731 57.6459C153.106 57.7402 151.477 57.8159 149.843 57.8727L149.773 55.8739ZM159.45 55.3119C161.064 55.1803 162.673 55.03 164.276 54.8614L164.485 56.8504C162.867 57.0207 161.242 57.1724 159.613 57.3052L159.45 55.3119ZM169.09 54.2978C170.696 54.0906 172.296 53.8649 173.889 53.621L174.192 55.5979C172.583 55.8443 170.967 56.0721 169.346 56.2813L169.09 54.2978ZM178.671 52.8311C180.265 52.5485 181.853 52.2475 183.433 51.9284L183.829 53.8889C182.233 54.2111 180.63 54.515 179.021 54.8004L178.671 52.8311ZM188.173 50.9132C189.751 50.5555 191.322 50.1797 192.886 49.7859L193.375 51.7254C191.795 52.123 190.208 52.5025 188.615 52.8637L188.173 50.9132ZM197.572 48.5471C199.131 48.1151 200.683 47.6651 202.227 47.1975L202.807 49.1116C201.248 49.5838 199.681 50.0382 198.106 50.4745L197.572 48.5471ZM206.849 45.7377C208.386 45.2322 209.914 44.709 211.435 44.1685L212.105 46.053C210.569 46.5988 209.026 47.127 207.474 47.6375L206.849 45.7377ZM215.982 42.491C217.493 41.9132 218.995 41.3182 220.488 40.7061L221.247 42.5566C219.739 43.1748 218.222 43.7756 216.697 44.3591L215.982 42.491ZM224.951 38.8148C226.432 38.1662 227.905 37.5006 229.368 36.8183L230.213 38.6309C228.736 39.3198 227.249 39.9919 225.753 40.6469L224.951 38.8148ZM233.736 34.7179C235.184 34 236.624 33.2655 238.053 32.5147L238.983 34.2853C237.54 35.0434 236.087 35.785 234.624 36.51L233.736 34.7179ZM242.317 30.2102C243.73 29.4248 245.133 28.6232 246.525 27.8057L247.538 29.5304C246.132 30.3559 244.715 31.1653 243.289 31.9583L242.317 30.2102ZM250.676 25.3027C252.051 24.4516 253.414 23.5849 254.767 22.7026L255.859 24.3778C254.494 25.2686 253.117 26.1438 251.729 27.0031L250.676 25.3027ZM258.795 20.007C260.128 19.0924 261.449 18.1625 262.759 17.2175L263.929 18.8395C262.607 19.7936 261.272 20.7325 259.927 21.656L258.795 20.007ZM266.656 14.3357C267.945 13.3596 269.221 12.3687 270.485 11.3633L271.73 12.9286C270.454 13.9438 269.165 14.9443 267.864 15.9298L266.656 14.3357ZM274.243 8.30193C275.484 7.26666 276.713 6.21706 277.928 5.15337L279.245 6.65865C278.018 7.73261 276.777 8.79236 275.524 9.83764L274.243 8.30193Z"
    fill="url(#arrow-dotted-image)" />
  <defs>
    <linearGradient id="arrow-dotted-image" x1="284" y1="1.00004" x2="1" y2="1.00003" gradientUnits="userSpaceOnUse">
      <stop stop-color="white" />
      <stop offset="1" stop-color="currentColor" stop-opacity="0" />
    </linearGradient>
  </defs>
</svg>